<?xml version="1.0" encoding="utf-8"?>
<svg width="800px" height="800px" viewBox="-1 0 8 8" version="1.1" xmlns="http://www.w3.org/2000/svg">
  <defs/>
  <g id="Dribbble-Light-Preview" transform="matrix(0.586746, 0, 0, 0.80117, -132.217056, -3015.702393)" fill="#282828" stroke="none" stroke-width="1" fill-rule="evenodd">
    <g id="icons" transform="translate(56, 160)">
      <path d="M 171.593 3604.988 C 170.949 3604.988 170.426 3605.445 170.426 3606.007 L 170.426 3612.121 C 170.426 3612.683 170.949 3613.14 171.593 3613.14 C 172.238 3613.14 172.761 3612.683 172.761 3612.121 L 172.761 3606.007 C 172.761 3605.445 172.238 3604.988 171.593 3604.988 M 177.431 3606.007 L 177.431 3612.121 C 177.431 3612.683 176.908 3613.14 176.263 3613.14 C 175.619 3613.14 175.096 3612.683 175.096 3612.121 L 175.096 3606.007 C 175.096 3605.445 175.619 3604.988 176.263 3604.988 C 176.908 3604.988 177.431 3605.445 177.431 3606.007" id="pause-[#1006]" style=""/>
    </g>
  </g>
</svg>